# xmcd CD database file
#
# Track frame offsets:
#	150
#	27624
#	45581
#	65644
#	84381
#	100664
#	115757
#	134906
#	150945
#	166004
#	185112
#	204167
#	222623
#	238250
#	254379
#	270113
#	286937
#	304669
#	322753
#	341452
#
# Disc length: 4752 seconds
#
# Revision: 2
# Processed by: cddbd v1.5.2PL0 Copyright (c) Steve Scherf et al.
# Submitted via: CDex 1.51
#
DISCID=18128e14
DTITLE=Various Artist - ZM-PB-2-CD-6
DYEAR=1900
DGENRE=Blues
TTITLE0=Guns and Roses - Sweet Child Of Mine
TTITLE1=Rihanna - Take A Bow
TTITLE2=Gabrelle Aplin - The Power Of Love
TTITLE3=Macklemore Ft Ryan Lewis and Wanz - Thrift Shop
TTITLE4=Ke$ha - Tic Tok
TTITLE5=Rocky Horror Picture Show - Time Warp
TTITLE6=Natalie Imbrugua - Torn
TTITLE7=Britney Spears - Toxic
TTITLE8=Olly Murs Ft Flo Rida - Troublemaker (duet version)
TTITLE9=Pink - Try
TTITLE10=Adele - Turning Tables
TTITLE11=Taylor Swift - 22
TTITLE12=Justin Bieber - U Smile
TTITLE13=Wanted The - Walks Like Rihanna
TTITLE14=Taylor Swift - We Are Never Getting Back Together
TTITLE15=Bruno Mars - When I Was Your Man
TTITLE16=Little Mix - Wings
TTITLE17=Oasis - Wonderwall
TTITLE18=Boyzone - Words
TTITLE19=Ellie Goulding - Your Song
EXTD=
EXTT0=
EXTT1=
EXTT2=
EXTT3=
EXTT4=
EXTT5=
EXTT6=
EXTT7=
EXTT8=
EXTT9=
EXTT10=
EXTT11=
EXTT12=
EXTT13=
EXTT14=
EXTT15=
EXTT16=
EXTT17=
EXTT18=
EXTT19=
PLAYORDER=
